<?xml version="1.0" encoding="iso-8859-1"?>
<!-- Uploaded to: SVG Repo, www.svgrepo.com, Generator: SVG Repo Mixer Tools -->
<svg version="1.1" id="Layer_1" xmlns="http://www.w3.org/2000/svg" xmlns:xlink="http://www.w3.org/1999/xlink" 
	 viewBox="0 0 512 512" xml:space="preserve">
<path style="fill:#B2B2B2;" d="M435.574,503.983H76.426c-18.891,0-34.205-15.314-34.205-34.205V59.324h427.557v410.455
	C469.779,488.669,454.465,503.983,435.574,503.983z"/>
<path style="fill:#CCCCCC;" d="M435.574,59.324v410.455c0,18.891-15.314,34.205-34.205,34.205h34.205
	c18.891,0,34.205-15.314,34.205-34.205V59.324H435.574z"/>
<path style="fill:#FAFAFA;" d="M401.37,469.779V8.017H42.221v461.762c0,18.891,15.314,34.205,34.205,34.205h359.148
	C416.684,503.983,401.37,488.669,401.37,469.779z"/>
<path style="fill:#E5E5E5;" d="M42.221,8.017v461.762c0,18.891,15.314,34.205,34.205,34.205h163.1L109.052,8.017H42.221z"/>
<rect x="76.426" y="50.772" style="fill:#808080;" width="290.739" height="59.858"/>
<polygon style="fill:#FF8C78;" points="273.102,179.04 204.693,213.244 204.693,324.409 256,324.409 256,264.551 290.205,264.551 
	290.205,324.409 341.511,324.409 341.511,213.244 "/>
<polygon style="fill:#DF7A6E;" points="204.693,213.244 204.693,324.409 231.415,324.409 231.415,199.883 "/>
<g>
	<path style="fill:#666666;" d="M128.267,93.528h-18.171c-4.427,0-8.017-3.589-8.017-8.017v-9.62c0-4.427,3.589-8.017,8.017-8.017
		h18.171c4.427,0,8.017,3.589,8.017,8.017v9.62C136.284,89.939,132.695,93.528,128.267,93.528z"/>
	<path style="fill:#666666;" d="M179.574,93.528h-18.171c-4.427,0-8.017-3.589-8.017-8.017v-9.62c0-4.427,3.589-8.017,8.017-8.017
		h18.171c4.427,0,8.017,3.589,8.017,8.017v9.62C187.591,89.939,184.001,93.528,179.574,93.528z"/>
	<path style="fill:#666666;" d="M230.881,93.528H212.71c-4.427,0-8.017-3.589-8.017-8.017v-9.62c0-4.427,3.589-8.017,8.017-8.017
		h18.171c4.427,0,8.017,3.589,8.017,8.017v9.62C238.898,89.939,235.308,93.528,230.881,93.528z"/>
	<path style="fill:#666666;" d="M333.495,93.528h-18.171c-4.427,0-8.017-3.589-8.017-8.017v-9.62c0-4.427,3.589-8.017,8.017-8.017
		h18.171c4.427,0,8.017,3.589,8.017,8.017v9.62C341.511,89.939,337.922,93.528,333.495,93.528z"/>
</g>
<path d="M469.779,127.198c4.427,0,8.017-3.588,8.017-8.017V59.324c0-4.428-3.589-8.017-8.017-8.017h-60.392V8.017
	c0-4.428-3.589-8.017-8.017-8.017H42.221c-4.427,0-8.017,3.588-8.017,8.017v290.739c0,4.428,3.589,8.017,8.017,8.017
	s8.017-3.588,8.017-8.017V16.033h343.115v453.745c0,9.884,3.414,18.986,9.125,26.188H76.426c-14.44,0-26.188-11.747-26.188-26.188
	V350.063c0-4.428-3.589-8.017-8.017-8.017s-8.017,3.588-8.017,8.017v119.716c0,23.28,18.941,42.221,42.221,42.221h359.148
	c23.28,0,42.221-18.941,42.221-42.221v-299.29c0-4.428-3.589-8.017-8.017-8.017s-8.017,3.588-8.017,8.017v299.29
	c0,14.441-11.748,26.188-26.188,26.188c-14.44,0-26.188-11.747-26.188-26.188V67.34h52.376v51.841
	C461.762,123.61,465.351,127.198,469.779,127.198z"/>
<path d="M367.165,42.756H76.426c-4.427,0-8.017,3.588-8.017,8.017v59.858c0,4.428,3.589,8.017,8.017,8.017h290.739
	c4.427,0,8.017-3.588,8.017-8.017V50.772C375.182,46.344,371.592,42.756,367.165,42.756z M359.148,102.614H84.443V58.789h274.706
	V102.614z"/>
<path d="M290.205,332.426h51.307c4.427,0,8.017-3.588,8.017-8.017V213.244c0-3.037-1.716-5.813-4.432-7.17l-68.409-34.205
	c-2.256-1.13-4.914-1.13-7.17,0l-68.409,34.205c-2.716,1.359-4.432,4.133-4.432,7.17v111.165c0,4.428,3.589,8.017,8.017,8.017H256
	c4.427,0,8.017-3.588,8.017-8.017v-51.841h18.171v51.841C282.188,328.838,285.777,332.426,290.205,332.426z M256,256.534
	c-4.427,0-8.017,3.588-8.017,8.017v51.841H212.71V218.2l60.392-30.196l60.392,30.196v98.193h-35.273v-51.841
	c0-4.428-3.589-8.017-8.017-8.017H256z"/>
<path d="M371.003,189.104l-94.063-51.307c-2.392-1.305-5.285-1.305-7.678,0L175.2,189.104c-3.887,2.12-5.32,6.99-3.199,10.877
	c2.12,3.885,6.989,5.319,10.876,3.198l90.224-49.213l90.224,49.213c4.098,2.235,9.354,0.401,11.202-3.87
	C376.151,195.559,374.586,191.058,371.003,189.104z"/>
<path d="M76.426,392.284h119.716c4.427,0,8.017-3.588,8.017-8.017s-3.589-8.017-8.017-8.017H76.426
	c-4.427,0-8.017,3.588-8.017,8.017S71.999,392.284,76.426,392.284z"/>
<path d="M367.165,376.251H247.449c-4.427,0-8.017,3.588-8.017,8.017s3.589,8.017,8.017,8.017h119.716
	c4.427,0,8.017-3.588,8.017-8.017S371.592,376.251,367.165,376.251z"/>
<path d="M76.426,426.489h119.716c4.427,0,8.017-3.588,8.017-8.017s-3.589-8.017-8.017-8.017H76.426
	c-4.427,0-8.017,3.588-8.017,8.017S71.999,426.489,76.426,426.489z"/>
<path d="M367.165,410.455H247.449c-4.427,0-8.017,3.588-8.017,8.017s3.589,8.017,8.017,8.017h119.716
	c4.427,0,8.017-3.588,8.017-8.017S371.592,410.455,367.165,410.455z"/>
<path d="M76.426,460.693h119.716c4.427,0,8.017-3.588,8.017-8.017s-3.589-8.017-8.017-8.017H76.426
	c-4.427,0-8.017,3.588-8.017,8.017S71.999,460.693,76.426,460.693z"/>
<path d="M367.165,444.66H247.449c-4.427,0-8.017,3.588-8.017,8.017s3.589,8.017,8.017,8.017h119.716
	c4.427,0,8.017-3.588,8.017-8.017S371.592,444.66,367.165,444.66z"/>
<path d="M153.386,238.363c4.427,0,8.017-3.588,8.017-8.017s-3.589-8.017-8.017-8.017h-17.637v-9.086
	c0-4.428-3.589-8.017-8.017-8.017c-4.427,0-8.017,3.588-8.017,8.017v9.086h-6.948c-10.314,0-18.706,8.392-18.706,18.706v17.102
	c0,10.314,8.392,18.706,18.706,18.706h6.948v22.447h-17.637c-4.427,0-8.017,3.588-8.017,8.017c0,4.428,3.589,8.017,8.017,8.017
	h17.637v9.086c0,4.428,3.589,8.017,8.017,8.017c4.427,0,8.017-3.588,8.017-8.017v-9.086h6.948c10.314,0,18.706-8.392,18.706-18.706
	v-17.102c0-10.314-8.392-18.706-18.706-18.706h-6.948v-22.447H153.386z M142.697,276.843c1.473,0,2.672,1.198,2.672,2.672v17.102
	c0,1.474-1.199,2.672-2.672,2.672h-6.948v-22.447H142.697z M119.716,260.81h-6.948c-1.473,0-2.672-1.198-2.672-2.672v-17.102
	c0-1.474,1.199-2.672,2.672-2.672h6.948V260.81z"/>
<path d="M161.937,136.818H93.528c-4.427,0-8.017,3.588-8.017,8.017c0,4.428,3.589,8.017,8.017,8.017h68.409
	c4.427,0,8.017-3.588,8.017-8.017C169.954,140.407,166.365,136.818,161.937,136.818z"/>
<path d="M169.954,179.04c0-4.428-3.589-8.017-8.017-8.017H93.528c-4.427,0-8.017,3.588-8.017,8.017s3.589,8.017,8.017,8.017h68.409
	C166.365,187.056,169.954,183.468,169.954,179.04z"/>
</svg>